<?xml version="1.0" standalone="no"?>
<!DOCTYPE svg PUBLIC "-//W3C//DTD SVG 20010904//EN"
 "http://www.w3.org/TR/2001/REC-SVG-20010904/DTD/svg10.dtd">
<svg version="1.0" xmlns="http://www.w3.org/2000/svg"
 width="200.000000pt" height="200.000000pt" viewBox="0 0 200.000000 200.000000"
 preserveAspectRatio="xMidYMid meet">
<metadata>
Created by potrace 1.11, written by Peter Selinger 2001-2013
</metadata>
<g transform="translate(0.000000,200.000000) scale(0.100000,-0.100000)"
fill="#000000" stroke="none">
<path d="M101 1550 c-9 -20 -6 -330 3 -395 10 -65 66 -180 111 -227 47 -49
109 -91 168 -113 l47 -18 0 -174 0 -174 112 3 112 3 1 169 0 168 73 35 c127
60 221 176 250 310 5 23 9 128 8 234 l-1 193 -107 1 c-60 0 -108 -2 -109 -5
-1 -3 -2 -90 -3 -195 -3 -217 -10 -243 -87 -308 -99 -85 -258 -54 -327 62 -26
45 -27 51 -30 221 -1 96 -4 186 -5 200 -2 24 -3 25 -105 25 -83 0 -105 -3
-111 -15z"/>
<path d="M1051 1560 c-4 -3 -7 -53 -7 -112 l1 -108 167 0 166 0 1 -352 c0
-194 0 -395 0 -445 l1 -93 110 0 c98 0 110 2 110 18 1 9 1 209 1 444 l0 428
167 2 167 3 0 103 c1 61 -3 106 -10 110 -12 7 -863 9 -874 2z"/>
</g>
</svg>
